<svg xmlns="http://www.w3.org/2000/svg" viewBox="0 0 511 510.99"><title>achievements </title><g id="Layer_2" data-name="Layer 2"><g id="Layer_1-2" data-name="Layer 1"><path d="M500.55,32.94a40,40,0,0,0-29.47-13H400.21a20,20,0,1,0,0,39.92l70.87,0c-2.16,24.21-13.25,74.71-64.76,125.23a152.51,152.51,0,0,0,3.87-34.2V130.74a20.08,20.08,0,0,0-.65-5,20,20,0,0,0-8.14-21.54C356.15,73.7,312.46,50.88,268.07,34.58a20,20,0,1,0-27.2-.07C191,52.08,146.57,75.74,108.6,104.94a20,20,0,0,0-7.15,20.86,20.08,20.08,0,0,0-.64,4.94v20.19a152.38,152.38,0,0,0,3.87,34.2C53.17,134.6,42.08,84.1,39.93,59.88h70.86a20,20,0,0,0,0-39.92H39.93A39.9,39.9,0,0,0,.15,63.33C2.22,86.63,9.93,122.74,35,162.48,63.72,208.1,108,246.94,166.63,278a92.93,92.93,0,0,1,9.18,13.09c9.49,16.22,20.81,45.72,20.81,94.17,0,26.47-4.47,64.22-7.36,85.83H173.67a20,20,0,1,0,0,39.92H337.34a20,20,0,1,0,0-39.92H321.86c-2.9-22.49-7.47-62-7.47-86.83a20,20,0,0,0-39.93,0c0,25.31,4.14,62.87,7.14,86.83H229.54c3-23.12,7-59,7-85.83,0-31.8-4.22-59.9-12.52-84a156.27,156.27,0,0,0,31.48,3.2,154.67,154.67,0,0,0,80.91-22.72,20.2,20.2,0,0,0,3.73-1.47c60.73-31.4,106.45-71,135.89-117.73,25-39.74,32.76-75.85,34.82-99.15A39.94,39.94,0,0,0,500.55,32.94Zm-164,77.84H171a460.43,460.43,0,0,1,83.33-38.72A536.81,536.81,0,0,1,336.58,110.78ZM188.19,242.83a82.33,82.33,0,0,0-9.89-8,112.73,112.73,0,0,1-37.57-83.95v-.23H370.27v.23c0,62.61-51.48,113.55-114.77,113.55A114.91,114.91,0,0,1,188.19,242.83Z"/></g></g></svg>