<svg xmlns="http://www.w3.org/2000/svg" viewBox="0 0 511 379.22"><title>arrows rigth</title><g id="Layer_2" data-name="Layer 2"><g id="Layer_1-2" data-name="Layer 1"><path d="M325.75,379.22a49.85,49.85,0,0,0,35.34-14.67L493.5,232a60,60,0,0,0,0-84.75L361.09,14.67A50.18,50.18,0,0,0,275.48,50V170.64H20a20,20,0,0,0,0,39.93H275.48a40,40,0,0,0,39.92-39.93V50a9.75,9.75,0,0,1,6.28-9.23,9.91,9.91,0,0,1,11.17,2.13l132.4,132.57a20.06,20.06,0,0,1,0,28.32L332.85,336.34a9.92,9.92,0,0,1-11.16,2.13,9.74,9.74,0,0,1-6.29-9.23V286.3a20,20,0,1,0-39.92,0v42.94a49.81,49.81,0,0,0,30.94,46.12A50.43,50.43,0,0,0,325.75,379.22Z"/></g></g></svg>