<svg xmlns="http://www.w3.org/2000/svg" viewBox="0 0 511 379.22"><title>arrows left</title><g id="Layer_2" data-name="Layer 2"><g id="Layer_1-2" data-name="Layer 1"><path d="M185.25,379.22a49.86,49.86,0,0,1-35.34-14.67L17.51,232a60,60,0,0,1,0-84.75L149.91,14.67A50.18,50.18,0,0,1,235.52,50V170.64H491a20,20,0,0,1,0,39.93H235.52a40,40,0,0,1-39.92-39.93V50a9.74,9.74,0,0,0-6.28-9.23,9.9,9.9,0,0,0-11.16,2.13L45.75,175.45a20.06,20.06,0,0,0,0,28.32L178.16,336.34a9.9,9.9,0,0,0,11.15,2.13,9.73,9.73,0,0,0,6.29-9.23V286.3a20,20,0,1,1,39.92,0v42.94a49.81,49.81,0,0,1-30.94,46.12A50.43,50.43,0,0,1,185.25,379.22Z"/></g></g></svg>