<svg xmlns="http://www.w3.org/2000/svg" viewBox="0 0 512 512"><title>dashboard</title><g id="Layer_2" data-name="Layer 2"><g id="Layer_1-2" data-name="Layer 1"><path d="M512,46a20,20,0,0,1-20,20H482V242a20,20,0,0,1-40,0V66H70V342a40.05,40.05,0,0,0,40,40H402a40.05,40.05,0,0,0,40-40,20,20,0,0,1,40,0,80.09,80.09,0,0,1-80,80H276v50h85a20,20,0,0,1,0,40H152a20,20,0,0,1,0-40h84V422H110a80.09,80.09,0,0,1-80-80V66H20a20,20,0,0,1,0-40H236V20a20,20,0,0,1,40,0v6H492A20,20,0,0,1,512,46ZM238,187a20,20,0,0,1-20,20H126a20,20,0,0,1-20-20V118a20,20,0,0,1,20-20h92a20,20,0,0,1,20,20Zm-40-49H146v29h52Zm208,49a20,20,0,0,1-20,20H294a20,20,0,0,1-20-20V118a20,20,0,0,1,20-20h92a20,20,0,0,1,20,20Zm-40-49H314v29h52ZM238,261v69a20,20,0,0,1-20,20H126a20,20,0,0,1-20-20V261a20,20,0,0,1,20-20h92A20,20,0,0,1,238,261Zm-40,20H146v29h52Zm208-20v69a20,20,0,0,1-20,20H294a20,20,0,0,1-20-20V261a20,20,0,0,1,20-20h92A20,20,0,0,1,406,261Zm-40,20H314v29h52Z"/></g></g></svg>