<svg xmlns="http://www.w3.org/2000/svg" viewBox="0 0 357.02 512"><title>dthan</title><g id="Layer_2" data-name="Layer 2"><g id="Capa_1" data-name="Capa 1"><path d="M352.55,204.09a47.91,47.91,0,0,0-44-28.09H237.33L301.2,63.65a41.74,41.74,0,0,0,.33-42.28A41.75,41.75,0,0,0,264.82,0a42.38,42.38,0,0,0-26.57,9.4c-.38.31-.74.63-1.1,1L20.78,213.23A59.43,59.43,0,0,0,.13,262.3C2.25,294.62,28.15,319,60.38,319H128L59.54,450.42l-.2.4a41.69,41.69,0,0,0,13.2,53A41.69,41.69,0,0,0,127,499.61l.63-.64,155-167.39a20,20,0,1,0-29.35-27.17L98.63,471.4c-.64.61-1.3,1-2.69,0s-1.22-1.84-.8-2.7l83.55-160.44A20,20,0,0,0,161,279H60.38c-12.52,0-19.71-9.72-20.33-19.31a19.24,19.24,0,0,1,7.12-16.4c.23-.2.45-.39.67-.6L263.7,40.3a2.19,2.19,0,0,1,1.12-.3,2.22,2.22,0,0,1,1.91,3.36l-.21.36-81,142.39A20,20,0,0,0,203,216H308.51a8,8,0,0,1,7.69,4.78,8.24,8.24,0,0,1-1.42,9.19A20,20,0,1,0,345.12,256,48.13,48.13,0,0,0,352.55,204.09Z"/></g></g></svg>