<svg xmlns="http://www.w3.org/2000/svg" viewBox="0 0 512 512"><title>history</title><g id="Layer_2" data-name="Layer 2"><g id="Layer_1-2" data-name="Layer 1"><path d="M256,296a40,40,0,0,1-20-74.64V100a20,20,0,0,1,40,0V221.36a40,40,0,0,1,18.64,45l53,53a20,20,0,1,1-28.28,28.28l-53-53A40.26,40.26,0,0,1,256,296ZM437.15,75.11A254.35,254.35,0,0,0,256.4,0H256C116.14,0,1.34,113.65,0,253.52a256.45,256.45,0,0,0,57.39,164,2.06,2.06,0,0,1,0,2.74L22.84,454.7a33.54,33.54,0,0,0,23.71,57.24l90.66.06h0A49.76,49.76,0,0,0,187,462.21L187,371.55a33.55,33.55,0,0,0-57.25-23.71l-.15.15-7.85,8A20,20,0,0,0,147,386.73l0,75.5a9.76,9.76,0,0,1-9.76,9.77h0l-75-.05L85.63,448.6a42,42,0,0,0,2.78-56.31A216.33,216.33,0,0,1,40,253.9C41.13,135.88,138,40,256,40h.34C375.25,40.18,472,137.08,472,256a215.08,215.08,0,0,1-36.63,119.89,20,20,0,0,0,33.25,22.23,255.36,255.36,0,0,0-31.47-323ZM367.74,440.89A215.64,215.64,0,0,1,256,472a20,20,0,0,0,0,40,255.64,255.64,0,0,0,132.46-36.89,20,20,0,1,0-20.72-34.22Z"/></g></g></svg>