<svg xmlns="http://www.w3.org/2000/svg" viewBox="0 0 510.82 511.15"><title>rating</title><g id="Layer_2" data-name="Layer 2"><g id="Layer_1-2" data-name="Layer 1"><path d="M362.8.65a74.8,74.8,0,0,0-23.6,9.4c-2.9,1.9-25.5,23.7-50.4,48.3-43.8,43.4-45.3,45-48.6,52.3-4.7,10.2-6.2,16.8-6,27.7.1,16.1,5.7,29.6,16.8,40.8,15,15.3,37.4,21.3,59,15.9l2.5-.6v277.2h-117V265.85l3.1-3.1,3.1-3.1h27.6l3.1,3,3,3.1.3,75.7c.2,61.9.6,76.2,1.7,78.2a27.35,27.35,0,0,0,9.6,9.8c3.9,2,13.1,2,17.1-.1,4.4-2.3,9.1-8,10.4-12.7.7-2.7,1-28,.8-80.2l-.3-76.3-2.3-5.9c-6.1-16.1-16.5-26.4-32.1-31.8-5.9-2.1-8.4-2.3-25.1-2.3s-19.2.2-25.1,2.3c-15.6,5.4-26,15.7-32.1,31.8l-2.3,5.9-.3,105.7-.3,105.8H45.7l-3.1-3.1-3.1-3.1V357.85l3.1-3.1,3.1-3.1H73.3l3.1,3.1,3.1,3.1v32.6c0,19.7.4,34.2,1.1,36.5,1.2,4.4,5.9,10.2,10.3,12.4,4,2.1,13.2,2.1,17.2,0s9.1-7.9,10.1-11.5c.5-1.5.8-18.9.8-38.7,0-34.9-.1-36.2-2.3-42.6-5.4-15.7-16.4-26.7-32.1-32.1-5.9-2.1-8.4-2.3-25.1-2.3s-19.2.2-25.1,2.3c-15.7,5.4-26.7,16.4-32.1,32.1-2.3,6.6-2.3,6.8-2.3,65.1,0,54.5.1,58.9,1.9,64,5.6,16.6,17,28,33.6,33.6,5.3,1.8,13.4,1.9,232.5,1.9,124.9,0,228.2-.3,229.7-.8,3.6-1,9.5-6.2,11.5-10.1.9-1.7,1.6-5.5,1.6-8.6s-.7-6.9-1.6-8.6c-2.2-4.4-8-9.1-12.4-10.3-2.5-.7-28.1-1.1-74-1.1H352.5l-.2-160.3c-.3-148.5-.4-160.4-2-163.3-4.1-7.4-13.3-12.3-20.7-10.9-5.3,1-8.1,2.7-17.4,10.9-9.5,8.2-13.6,10.1-20.9,9.4-13.3-1.3-21.6-15.9-15.9-28.3,2.4-5.3,83.3-85.2,88.8-87.7a21.11,21.11,0,0,1,16.6,0c5.5,2.5,86.4,82.4,88.8,87.7,5.7,12.4-2.6,27-15.9,28.3-7.4.7-11.4-1.2-21.4-9.9-11.2-9.7-16.8-12-24.4-9.9a23.28,23.28,0,0,0-13.2,10.4c-1.6,2.9-1.7,12.4-2,123.4-.2,82.6.1,121.6.8,124.3,1.3,4.6,6,10.3,10.4,12.6,4,2.1,13.2,2.1,17.1.1a27.35,27.35,0,0,0,9.6-9.8c1.2-2.1,1.4-20.1,1.7-103.4l.2-100.8,2.3.6a83.94,83.94,0,0,0,9.9,1.6c17.4,2.3,35.9-4.1,48.8-17,11.6-11.5,17.2-24.9,17.3-41.3.2-10.9-1.3-17.5-6-27.7-3.3-7.3-4.9-8.9-48.6-52.3C431.3,33.75,408.5,12,405.5,10,394.2,2.35,375.8-1.65,362.8.65Z"/></g></g></svg>