<svg xmlns="http://www.w3.org/2000/svg" viewBox="0 0 512 512"><title>settings</title><g id="Layer_2" data-name="Layer 2"><g id="Layer_1-2" data-name="Layer 1"><path d="M257.1,512h-2.2a50.76,50.76,0,0,1-50.63-45.73l-.06-.57a35.44,35.44,0,0,0-21.79-29.32l-1.56-.65a35.61,35.61,0,0,0-36.38,5A50.59,50.59,0,0,1,76,436.8l-1.34-1.37a51,51,0,0,1-3.45-67.16l.13-.16a36.05,36.05,0,0,0,5.15-36.45c-.31-.72-.61-1.45-.91-2.18A35.37,35.37,0,0,0,46.3,307.79l-.57-.06A50.76,50.76,0,0,1,0,257.1v-2.2a50.76,50.76,0,0,1,45.73-50.63l.57-.06a35.49,35.49,0,0,0,29.34-21.82c.21-.52.43-1,.65-1.57a35.59,35.59,0,0,0-5-36.32l-.22-.27a50.75,50.75,0,0,1,3.51-68.07l1.6-1.6a50.74,50.74,0,0,1,68.07-3.5l.09.07a35.72,35.72,0,0,0,36.49,5.16l1.53-.63A35.58,35.58,0,0,0,204.21,46.3l.06-.57A50.76,50.76,0,0,1,254.9,0h2.2a50.76,50.76,0,0,1,50.63,45.73,36.52,36.52,0,0,0,22.38,30.11l1.07.45a37.11,37.11,0,0,0,37.14-4.66l.88-.69a51,51,0,0,1,67.22,4.2l.44.44a51,51,0,0,1,4.19,67.22l-.68.88a37.08,37.08,0,0,0-4.66,37.14l.27.66a37,37,0,0,0,30.29,22.79A50.76,50.76,0,0,1,512,254.9v2.2a50.76,50.76,0,0,1-45.73,50.63l-.57.06a35.37,35.37,0,0,0-29.29,21.7l-.82,2a35.49,35.49,0,0,0,5.29,36.21s.05.05.06.08a50.75,50.75,0,0,1-3.5,68.07l-1.6,1.6a50.75,50.75,0,0,1-68.08,3.5l-.23-.19a35.6,35.6,0,0,0-36.38-5l-1.56.65a35.49,35.49,0,0,0-21.81,29.32l0,.57A50.76,50.76,0,0,1,257.1,512ZM166.74,392.86a76.26,76.26,0,0,1,29.62,6l1.25.52A75.43,75.43,0,0,1,244,461.64l.06.58A10.86,10.86,0,0,0,254.9,472h2.2a10.86,10.86,0,0,0,10.83-9.78l.06-.57a75.43,75.43,0,0,1,46.4-62.28l1.27-.52a75.53,75.53,0,0,1,77.09,10.85l.23.19a10.87,10.87,0,0,0,14.58-.73l1.6-1.6a10.86,10.86,0,0,0,.77-14.53s0,0-.05-.06a75.4,75.4,0,0,1-11.13-77.07l.64-1.56A75.32,75.32,0,0,1,461.65,268l.57-.06A10.85,10.85,0,0,0,472,257.1v-2.2a10.86,10.86,0,0,0-9.78-10.83,76.93,76.93,0,0,1-63.15-47.2l-.23-.53a77.16,77.16,0,0,1,10-77.22l.68-.87a10.92,10.92,0,0,0-.9-14.39l-.44-.44a10.91,10.91,0,0,0-14.38-.9l-.88.69a77.17,77.17,0,0,1-77.21,10l-.86-.36a76.47,76.47,0,0,1-46.88-63A10.86,10.86,0,0,0,257.1,40h-2.2a10.86,10.86,0,0,0-10.83,9.78l-.06.57a75.51,75.51,0,0,1-46.47,62.31l-1.2.5a75.65,75.65,0,0,1-77.23-11l-.09-.07a10.87,10.87,0,0,0-14.58.73l-1.59,1.6A10.85,10.85,0,0,0,102.1,119l.21.27a75.51,75.51,0,0,1,10.85,77.07c-.18.41-.34.82-.51,1.23A75.45,75.45,0,0,1,50.36,244l-.58.06A10.86,10.86,0,0,0,40,254.9v2.2a10.86,10.86,0,0,0,9.79,10.83l.56.06a75.32,75.32,0,0,1,62.25,46.33l.72,1.72A76,76,0,0,1,102.7,393l-.13.16a10.91,10.91,0,0,0,.73,14.37l1.34,1.37a10.78,10.78,0,0,0,14.61.84A75.22,75.22,0,0,1,166.74,392.86ZM291,366.61A20,20,0,0,0,279,328.47a75.91,75.91,0,1,1,50-51.08,20,20,0,1,0,38.4,11.22,115.89,115.89,0,1,0-76.31,78Z"/></g></g></svg>