<svg xmlns="http://www.w3.org/2000/svg" viewBox="0 0 512 512"><title>share</title><g id="Layer_2" data-name="Layer 2"><g id="Capa_1" data-name="Capa 1"><path d="M426,340a85.84,85.84,0,0,0-66.17,31.13l-66.92-33.28a20,20,0,1,0-17.81,35.81l67,33.34A86,86,0,1,0,426,340Zm0,132a46,46,0,0,1-42.43-63.75,20.17,20.17,0,0,0,1.34-2.31,21.9,21.9,0,0,0,1.08-2.62A46,46,0,1,1,426,472Z"/><path d="M426,0a86,86,0,0,0-83.82,105.28L151.84,200.73a86,86,0,1,0-.2,110.78L183.93,328a20,20,0,0,0,18.14-35.65l-32.38-16.48a86.32,86.32,0,0,0,.08-39.33L360,141.09A86,86,0,1,0,426,0ZM86,302a46,46,0,1,1,46-46A46.06,46.06,0,0,1,86,302ZM426,132a46,46,0,1,1,46-46A46.06,46.06,0,0,1,426,132Z"/></g></g></svg>