<svg xmlns="http://www.w3.org/2000/svg" viewBox="0 0 510.59 510.39"><title>speed</title><g id="Layer_2" data-name="Layer 2"><g id="Layer_1-2" data-name="Layer 1"><path d="M219.2,1.68c-38.6,6.1-73.6,19.4-104.7,40-41,27.1-74.2,66.8-93.2,111.6-2.6,6-6,14-7.7,17.6s-2.9,7.5-2.9,8.6A82.78,82.78,0,0,1,8.2,191c-15.5,58.7-8.9,121.5,18.7,177.6,35.2,71.7,103.5,123,183.2,137.7,66.4,12.2,136.5-3.1,192.1-42,14.4-10,28.7-22.6,31.5-27.6a20.66,20.66,0,0,0,.5-18.3c-2.5-5.1-20.4-20.4-36.5-31.1-35.7-23.8-73.6-37.4-116.5-42l-6-.6.3-83.5c.2-59.2-.1-84.8-.9-87.7-2.3-8.8-13.2-15.8-21.8-14.2-7.6,1.4-14.2,7.3-16.1,14.4-.7,2.7-.9,31-.8,87.5.2,64.5,0,83.6-.9,83.6-.7,0-6.5.7-13,1.5-42,5.5-82.5,21.9-118,47.6-4.5,3.2-8.3,5.9-8.6,5.9-1,0-15.1-18.4-21-27.5-8-12.2-18.4-33.2-17.1-34.4.5-.5,8.3-3.2,17.4-6.1,18.8-5.9,22.6-7.8,25.8-12.4,8.6-12.6,1.7-28.8-13.3-31.1-3.2-.5-7.6.5-23,5.4-10.4,3.3-19.3,5.7-19.7,5.3s-1.5-5.2-2.5-10.7c-2.6-15.3-2.4-54,.4-69.3,1.2-6.3,2.3-11.6,2.6-11.8s8.5,2,18.3,5.1c14.1,4.4,18.7,5.5,21.8,5,13.6-2.1,21.3-16.6,15.1-28.6-3.1-5.9-7.8-8.6-24.7-13.9-9-2.9-16.7-5.6-17.1-6-2.2-2,17.7-35.8,29.3-50,6.8-8.3,25.1-27,26.5-27,.6,0,5.8,6.6,11.5,14.6,11.6,16.1,15.1,19.8,20.7,21.3s8.2,1.3,13.9-1.3a17.75,17.75,0,0,0,10.2-11.5c2.9-8.4,1.3-12.3-13.2-32.4l-10.7-14.8,14.4-7c21.6-10.4,47.4-18.1,68.4-20.4l6.2-.7.3,22.4c.3,22.1.3,22.3,3,26.8a19.78,19.78,0,0,0,21.9,9c5.6-1.5,12.3-8,13.8-13.5.6-2.3,1.1-12.5,1.1-24.3V39.78H278c8.8,0,35.3,6.1,50.4,11.6,9.8,3.5,33.3,14.3,33.3,15.2,0,.3-4.6,6.9-10.1,14.6-12.5,17.3-14.4,21.1-13.5,27.9a18.25,18.25,0,0,0,10.9,15.3c5.8,2.6,8.4,2.9,14,1.3s9.1-5.2,20.7-21.3c5.7-8,10.8-14.6,11.3-14.6,1.5,0,18.9,17.4,26.5,26.5a229.51,229.51,0,0,1,14.5,19.5c7.7,11.7,18.1,31.6,17.4,33.4-.3.7-8.1,3.6-17.3,6.5s-18.8,6.4-21.1,7.7c-4.8,2.8-9.3,10.7-9.3,16.4s4.5,13.6,9.3,16.5c7.8,4.5,10.2,4.3,31.6-2.5,10.6-3.4,19.5-5.9,19.8-5.6s1.4,5.5,2.6,11.8c2.8,15.6,3,50.1.3,66.4-1,6.1-2.1,11.6-2.5,12.2s-6.9-.9-19.6-4.9c-21-6.7-23.4-6.9-31.2-2.4-4.8,2.9-9.3,10.8-9.3,16.5,0,5,4.3,13,8.4,15.8,4.8,3.3,58,20.2,63.7,20.3a22.88,22.88,0,0,0,19.8-12c2.4-4.6,6.6-21.3,9.3-36.6,2.9-17.1,3.6-52.9,1.4-71.5-9.8-80.5-56.3-150.4-126.8-190.9-25.5-14.6-52.3-24.3-83.8-30.3C282.9-.42,236.1-.92,219.2,1.68Zm63.5,383.5c27.3,3.7,54.1,12.3,76,24.4,8,4.4,25.7,15.9,26.5,17.2,1,1.6-19.9,14.8-35.1,22.2-32.5,15.8-65.5,22.7-101.8,21.5-18.1-.6-29.9-2.2-45.8-6.3-22-5.5-46.8-16.6-66.2-29.5l-10.9-7.2,3.4-2.8c5.8-4.8,27.9-17.6,38.6-22.3a227,227,0,0,1,60.3-17.1C240.5,383.48,269.7,383.48,282.7,385.18Z"/></g></g></svg>