<svg xmlns="http://www.w3.org/2000/svg" viewBox="0 0 489.67 510.77"><title>star</title><g id="Layer_2" data-name="Layer 2"><g id="Layer_1-2" data-name="Layer 1"><path d="M234.5.87c-16.8,3.3-30.2,13.6-37.4,29-1.6,3.3-9.7,27.5-18.1,53.6s-15.8,48.5-16.6,49.7a14.24,14.24,0,0,1-4.1,4c-2.5,1.7-7.4,1.8-58.3,2.3l-55.5.5-7.4,2.7c-30.2,11-44,44.1-30.4,72.8a55.53,55.53,0,0,0,8.6,12.7c2.7,2.9,23.8,19,46.7,35.8,43.2,31.6,45,33.2,45,39.8,0,1.4-6.7,23.4-14.9,48.9s-15.6,49.1-16.5,52.4c-6.9,26.8,7.9,53.7,34.8,63.2,9.9,3.5,23.1,3.5,33.2,0,8.6-3,10.5-4.3,54.1-36.5,19.1-14.1,36.8-26.9,39.2-28.5,5.4-3.4,9.3-3.5,14.6-.5,2.2,1.3,21.6,15.1,43,30.7,22.5,16.3,42,29.7,46,31.6,36.7,17.5,79.5-13.6,74.5-54-.4-3.7-5.7-21.3-12.5-41.6-12.2-36.7-13.8-40-20.4-43.5-9.4-4.8-21.8-.9-26.6,8.5-3.7,7.2-3.4,8.5,8.9,45.6,6.4,19.3,11.6,36,11.6,37.3,0,6.8-6.6,13.1-13.7,13.1-4.8,0-.9,2.6-48.9-32.2-40.5-29.3-45.7-32.7-54.4-35.2-6.5-2-19.6-2.2-26.5-.5-9.6,2.2-17.3,7.2-55,35-20.9,15.5-40,29.4-42.4,31-7,4.5-14.1,3.5-19-2.7-4.3-5.5-4.2-5.9,12.2-56.9,18.7-57.8,17.8-54.7,17.8-65a51.52,51.52,0,0,0-14-36.3c-2.5-2.6-22.8-18.1-45.1-34.4s-41.6-30.8-42.9-32.2c-3.1-3.3-3.9-10.2-1.7-14.4,3.6-6.9,1-6.6,62.6-7.2,53.7-.6,55.7-.7,62.1-2.8a54.56,54.56,0,0,0,30.6-25.8c1.7-3.3,10.2-28,18.8-54.9s16.4-49.9,17.1-50.9c5.4-7.8,18.5-7.1,22.7,1.1.8,1.5,8.3,24.2,16.7,50.3s16.4,49.7,17.7,52.5a54.58,54.58,0,0,0,30.6,27.4l7.2,2.6,56,.5c62.2.6,59.5.3,63.1,7.2,2.2,4.3,1.4,11.1-1.7,14.4-1.3,1.4-14.4,11.3-29.1,22s-28,21-29.7,22.9a22.15,22.15,0,0,0-4.1,7.5c-4.4,16.5,13.9,30.6,28.6,22,7.3-4.2,56.4-40.8,61.7-45.9,7.3-7.1,13.1-18.5,14.7-29.1,1-6.1.9-9.1-.3-16.2-3.5-20-15.7-34.6-34.8-41.6l-7.4-2.7-56-.5c-61.7-.6-59.6-.3-62.9-6.8-.7-1.5-8.2-24.1-16.6-50.2s-16.5-50.3-18.2-53.6c-3.7-7.6-11.1-16.1-17.8-20.4A56.84,56.84,0,0,0,234.5.87Z"/><path d="M96.5,42c-8.4,3-14.4,13-13,21.6,1.1,6.2,15.5,26,22.2,30.5,14.2,9.6,33.8-4.8,29.3-21.4-1.2-4.6-13.9-22.2-19.6-27.1a22.25,22.25,0,0,0-12.9-5.1A30.31,30.31,0,0,0,96.5,42Z"/><path d="M382.6,42a20.9,20.9,0,0,0-6.8,4.2c-5.7,5.5-17.7,22.3-18.8,26.5-3.6,13.2,8.4,26.4,22,24.2,5.6-.9,9.4-3.7,15.7-11.4,12.8-15.7,15.5-21.8,13.3-30.1-2.1-7.8-11.5-15-19.5-14.9A29.7,29.7,0,0,0,382.6,42Z"/><path d="M25,306.87c-6.9,2.3-13.5,4.8-14.7,5.4C5.2,315,0,323.67,0,329.47c0,3.7,2.4,9.3,5.2,12.6,7.3,8.3,14,8.8,31.8,2.5,14.5-5.2,19.9-9.3,22-17a20,20,0,0,0-13.7-24C39.6,302,38.5,302.17,25,306.87Z"/><path d="M443.5,308.87c-8.3,3.1-14.5,13.3-13,21.5,1.8,9.4,6.5,13.4,22.6,19.2,17.7,6.3,24.4,5.8,31.7-2.5a19.14,19.14,0,0,0,2.7-21.6c-2.8-5.3-7.2-8.2-19.5-12.6C453.7,307.67,449,306.87,443.5,308.87Z"/><path d="M242.5,451a33.42,33.42,0,0,1-3.7.9c-3.4.8-9.3,5.9-11.6,10-1.4,2.5-1.7,5.9-1.7,18.1,0,17.2.4,19.2,4.7,24,4.3,5,8.3,6.8,14.8,6.8s10.5-1.8,14.8-6.8c4.3-4.8,4.7-6.8,4.7-23,0-7.7-.3-15.2-.8-16.7-.9-3.4-6.1-9.4-9.6-11.2C251.4,451.67,244.2,450.37,242.5,451Z"/></g></g></svg>