<svg xmlns="http://www.w3.org/2000/svg" viewBox="0 0 510.61 511"><title>workout</title><g id="Layer_2" data-name="Layer 2"><g id="Layer_1-2" data-name="Layer 1"><path d="M90.9.6c-18.2,2.9-35.4,15-43.6,30.6-5.5,10.6-7.2,17.4-7.2,29,.1,8.5.5,11.3,3,18.5,8.8,25.1,30.2,40.5,56.4,40.5s47.7-15.4,56.3-40.5a59,59,0,0,0-14.3-61C128.4,4.6,108.5-2.1,90.9.6Zm16.4,40.6a18.71,18.71,0,0,1,10.3,10c3.5,7.5,1.6,17.9-4.2,23.2-7.5,6.9-20.3,6.9-27.8,0s-8-20.8-.8-28.6C90,40.2,99.9,38.2,107.3,41.2Z"/><path d="M373.8.8c-22.4,3.8-40,19.2-47.4,41.4l-2.4,7-.3,81.2-.3,81.3H264.6l-31.8-26c-38.5-31.4-48.5-37.6-70-43.1-13.3-3.3-27.5-4.1-71.8-3.7-36.8.4-42.7.7-47.5,2.2-20.6,6.7-35.4,21.6-41.7,42.1C.1,188.8,0,193.9,0,253.7v64.5L2.7,326c5.9,16.5,17.8,29.8,32.5,36.1l4.2,1.9.3,66.6c.3,71.8.1,68.4,5.7,74.4,3.9,4.3,8,6,14.1,6s10.2-1.7,14.1-6c5.7-6,5.4-1.9,5.7-83.1.2-51.3-.1-76.5-.8-79.2-1.2-4.5-5.9-10.4-9.9-12.5a32.85,32.85,0,0,0-7.6-2c-10.9-1.5-16.4-4.8-19.6-12-1.7-3.7-1.9-7.9-1.9-63s.2-59.3,1.9-63a18.71,18.71,0,0,1,10.3-10c3.2-1.3,10.2-1.5,47.5-1.5,46.2,0,50.3.4,62.4,4.9,9.7,3.7,17,8.9,51.4,37.1,18.5,15.1,34.9,28.2,36.3,29,2.3,1.3,10.1,1.5,49,1.8,30.8.2,47.5-.1,50.2-.8,4.6-1.2,10.3-5.9,12.8-10.4,1.6-2.8,1.7-11,2.2-95.1.6-101.9.1-95,7-100.9,5.3-4.4,8.3-4.7,43.9-4.4l33.3.3-9.1,10.9C423.8,68.8,423.7,74,438,90l8.4,9.5-19.2.4c-15.4.3-19.8.7-22.2,2a26.28,26.28,0,0,0-9.5,9.8c-1.8,3.5-1.7,12.9.3,16.6a23.22,23.22,0,0,0,12.7,10.4c2.7.7,18,1,46.3.8,37.6-.3,42.5-.5,45.3-2,3.6-2,8.1-7,9.6-10.7s1.1-11.7-.8-15.6c-.8-1.8-8.9-11.5-18-21.5s-16.4-18.5-16.4-19,7.4-9.5,16.4-20S508.1,29.9,509,28c1.2-2.6,1.6-5.3,1.3-9.9-.3-5.2-.9-7-3.5-10.1a26.52,26.52,0,0,0-6.4-5.8C497.1.3,495.1.2,438,0,405.6,0,376.7.3,373.8.8Z"/><path d="M137,217.2a33.42,33.42,0,0,1-3.7.9c-3.4.8-9.3,5.9-11.6,10-1.6,2.9-1.7,12.8-1.7,135.1,0,72.6.3,133.2.8,134.7,1,3.6,6.2,9.5,10.1,11.5s13.2,2.1,17.2,0,9.1-7.9,10.1-11.5,1-263.9,0-267.4-6.1-9.4-9.6-11.2C145.9,217.9,138.7,216.6,137,217.2Z"/><path d="M339,292.6c-6.7,1.7-12.7,7.4-14.4,13.8-1.5,5.3-1.5,185.3,0,190.6,1.2,4.4,5.9,10.2,10.3,12.4,1.7.9,5.5,1.6,8.6,1.6s6.9-.7,8.6-1.6c3.9-2,9.1-7.9,10.1-11.5s1-188.9,0-192.4-6.1-9.4-9.6-11.2A23.66,23.66,0,0,0,339,292.6Z"/></g></g></svg>